<?xml version="1.0" encoding="utf-8"?>
<!-- Generator: Adobe Illustrator 27.9.0, SVG Export Plug-In . SVG Version: 6.00 Build 0)  -->
<svg version="1.1" id="Layer_1" xmlns="http://www.w3.org/2000/svg" xmlns:xlink="http://www.w3.org/1999/xlink" x="0px" y="0px"
	 viewBox="0 0 140 89" style="enable-background:new 0 0 140 89;" xml:space="preserve">
<style type="text/css">
	.st0{filter:url(#Adobe_OpacityMaskFilter);}
	.st1{fill-rule:evenodd;clip-rule:evenodd;fill:#FFFFFF;}
	.st2{mask:url(#mask-2_00000059995012498090304990000006162332381862344117_);fill-rule:evenodd;clip-rule:evenodd;fill:#FFFFFF;}
	.st3{filter:url(#Adobe_OpacityMaskFilter_00000083059097314908503630000002237380986532549310_);}
	.st4{mask:url(#mask-2_00000077323359133380541190000001483713310223589781_);fill-rule:evenodd;clip-rule:evenodd;fill:#FFFFFF;}
</style>
<g id="Desktop">
	<g id="Styleguide" transform="translate(-92.000000, -47.000000)">
		<g id="logo-K89-black-Copy-2" transform="translate(92.000000, 47.000000)">
			<g id="Clip-2">
			</g>
			<defs>
				<filter id="Adobe_OpacityMaskFilter" filterUnits="userSpaceOnUse" x="18.9" y="21.3" width="102.6" height="46">
					<feColorMatrix  type="matrix" values="1 0 0 0 0  0 1 0 0 0  0 0 1 0 0  0 0 0 1 0"/>
				</filter>
			</defs>
			
				<mask maskUnits="userSpaceOnUse" x="18.9" y="21.3" width="102.6" height="46" id="mask-2_00000059995012498090304990000006162332381862344117_">
				<g class="st0">
					<polygon id="path-1_00000074402953929155548550000001932441031413373320_" class="st1" points="0,89 139.8,89 139.8,0.1 0,0.1 
											"/>
				</g>
			</mask>
			<path id="Fill-1" class="st2" d="M18.9,66.6V21.3h6.5v21.8c1.2-1.7,7.2-8.9,18.1-21.8h7.9L34.3,40.5l18.5,26.1h-7.5L29.8,44.5
				l-4.5,5v17.1H18.9z M63.3,43.9c-4.8-2.3-7.1-5.6-7.1-9.9c0-3.4,1.3-6.2,4-8.4c2.7-2.2,6-3.3,10.1-3.3c4.1,0,7.4,1,9.8,3.1
				c2.4,2.1,3.6,4.6,3.6,7.7c0,4.5-2.4,8-7.3,10.3c2.9,1.1,5.2,2.6,6.7,4.5c1.6,1.9,2.3,4.1,2.3,6.7c0,3.7-1.5,6.8-4.4,9.2
				c-2.9,2.4-6.7,3.6-11.1,3.6c-4.6,0-8.3-1.1-11.1-3.4c-2.8-2.3-4.2-5.1-4.2-8.5C54.5,50.2,57.4,46.3,63.3,43.9z M70.9,41.4
				c4.5-1.4,6.8-4,6.8-7.7c0-1.9-0.6-3.5-1.9-4.9c-1.3-1.4-3.1-2.1-5.7-2.1c-2.4,0-4.3,0.7-5.7,1.9c-1.4,1.3-2.1,2.9-2.1,4.9
				C62.4,37.4,65.2,40,70.9,41.4z M61.1,54.9c0,4.9,4.3,7.9,8.9,7.9c4.6,0,9-2.6,9-7.6c0-1.9-0.5-3.7-1.8-5.2
				c-1.5-1.7-3.6-2.7-5.6-3.4c-1.3-0.5-2.2-0.7-2.6-0.7c-0.4,0-1.2,0.3-2.3,0.8c-1.7,0.9-3.3,1.9-4.3,3.5
				C61.5,51.7,61.1,53.3,61.1,54.9z M94.7,67.3v-5.1c0.4,0,0.9,0.1,1.4,0.1c5.2,0,9.5-1.4,12.8-4.1c3.3-2.8,5.3-6.6,6-11.6
				c-2.6,3.1-6.2,4.7-10.7,4.7c-4,0-7.2-1.3-9.7-3.8c-2.5-2.6-3.8-5.8-3.8-9.6c0-4.3,1.5-7.9,4.4-11c2.9-3.1,6.7-4.6,11.3-4.6
				c4.6,0,8.3,1.7,11,5c2.7,3.3,4.1,7.9,4.1,13.5c0,7.8-2.1,14.2-6.5,19.1C110.8,64.8,104,67.3,94.7,67.3z M115.1,39.9
				c0-4-0.8-7.2-2.4-9.5c-1.6-2.3-3.9-3.4-6.8-3.4c-2.6,0-4.7,1-6.3,3c-1.7,2-2.5,4.5-2.5,7.5c0,2.7,0.8,4.8,2.4,6.5
				c1.6,1.7,3.7,2.5,6.3,2.5c2.5,0,4.7-0.7,6.5-2.1C114.2,43.1,115.1,41.6,115.1,39.9L115.1,39.9z"/>
			<defs>
				
					<filter id="Adobe_OpacityMaskFilter_00000142140499304912671840000004500984533324669615_" filterUnits="userSpaceOnUse" x="0" y="0.1" width="139.8" height="88.9">
					<feColorMatrix  type="matrix" values="1 0 0 0 0  0 1 0 0 0  0 0 1 0 0  0 0 0 1 0"/>
				</filter>
			</defs>
			
				<mask maskUnits="userSpaceOnUse" x="0" y="0.1" width="139.8" height="88.9" id="mask-2_00000077323359133380541190000001483713310223589781_">
				<g style="filter:url(#Adobe_OpacityMaskFilter_00000142140499304912671840000004500984533324669615_);">
					<polygon id="path-1_00000173865419750783580730000001951120636095881388_" class="st1" points="0,89 139.8,89 139.8,0.1 0,0.1 
											"/>
				</g>
			</mask>
			<polyline id="Fill-3" class="st4" points="134.2,0.1 139.8,0.1 139.8,89 0,89 0,83.4 134.2,83.4 134.2,0.1 			"/>
		</g>
	</g>
</g>
</svg>
